<svg width="497" height="114" viewBox="0 0 497 114" fill="none" xmlns="http://www.w3.org/2000/svg">
<g clip-path="url(#clip0_39_36)">
<path d="M0.511719 67.6639C7.67604 67.0619 22.2094 63.3825 23.0282 53.4784C24.0516 41.0982 33.2629 80.3019 56.5469 62.5055C79.831 44.7091 74.9695 73.0802 85.2042 53.4784C95.4389 33.8765 82.3897 79.5282 107.721 62.5055" stroke="black" stroke-width="2"/>
<path d="M14.3657 77.1176L25.368 82.7918C19.4319 82.1728 19.3125 84.2532 19.9948 85.371C27.3638 97.3384 43.3641 100.846 50.4432 101.104C50.4432 97.39 53.3429 95.9457 54.7927 95.6878V13.4117C54.7927 12.1737 56.4988 11.5203 57.3514 11.3484V113.742C54.4856 113.742 54.4519 110.819 54.7927 109.357C53.5645 109.357 51.3814 106.95 50.4432 105.747C20.1483 103.683 13.7687 85.8007 14.3657 77.1176Z" fill="#535BF2"/>
<path d="M100.082 77.1176L89.0793 82.7918C95.0154 82.1728 95.1352 84.2532 94.4525 85.371C87.0835 97.3384 71.0835 100.846 64.0042 101.104C64.0042 97.39 61.1047 95.9457 59.6544 95.6878V13.4117C59.6544 12.1737 57.9488 11.5203 57.0957 11.3484V113.742C59.9614 113.742 59.9957 110.819 59.6544 109.357C60.8826 109.357 63.0661 106.95 64.0042 105.747C94.299 103.683 100.679 85.8007 100.082 77.1176Z" fill="#535BF2"/>
<path opacity="0.77" d="M58.343 41.7752C63.4973 41.6981 67.6075 41.0441 70.8294 40.1178C72.032 39.772 78.6698 44.1115 79.0674 45.3069C79.0919 45.3815 79.1175 45.4555 79.1431 45.5287C79.4778 46.4832 79.2859 46.7112 78.3412 46.3669C74.0211 44.7926 64.4752 44.9113 58.4121 45.3147C57.817 45.3543 57.3145 44.8806 57.3145 44.2796V42.8145C57.3145 42.2447 57.7781 41.7836 58.343 41.7752Z" fill="#535BF2"/>
<path d="M56.5417 41.7752C51.3875 41.6981 47.277 41.0441 44.0555 40.1178C42.8526 39.772 36.2152 44.1115 35.8174 45.3069C35.7926 45.3815 35.7673 45.4555 35.7417 45.5287C35.4072 46.4832 35.5991 46.7112 36.5436 46.3669C40.8637 44.7926 50.4095 44.9113 56.4727 45.3147C57.0678 45.3543 57.5703 44.8806 57.5703 44.2796V42.8145C57.5703 42.2447 57.1067 41.7836 56.5417 41.7752Z" fill="#535BF2"/>
<mask id="mask0_39_36" style="mask-type:luminance" maskUnits="userSpaceOnUse" x="45" y="0" width="24" height="27">
<path d="M57.0585 26.3077C63.4176 26.3077 68.5726 20.4185 68.5726 13.1538C68.5726 5.88918 63.4176 0 57.0585 0C50.6995 0 45.5444 5.88918 45.5444 13.1538C45.5444 20.4185 50.6995 26.3077 57.0585 26.3077Z" fill="white"/>
</mask>
<g mask="url(#mask0_39_36)">
<path d="M48.6151 13.1538C48.6151 12.0083 49.0213 10.5317 50.2353 9.14473C51.4829 7.71953 53.8553 6.19002 57.0587 6.19002V46.4253C76.7146 46.4253 88.5306 29.089 88.5306 13.1538H48.6151ZM57.0587 6.19002C60.2622 6.19002 62.6346 7.71953 63.8822 9.14473C65.0961 10.5317 65.5024 12.0083 65.5024 13.1538H25.5869C25.5869 29.089 37.4032 46.4253 57.0587 46.4253V6.19002ZM65.5024 13.1538C65.5024 14.2993 65.0961 15.776 63.8822 17.1629C62.6346 18.5881 60.2622 20.1176 57.0587 20.1176V-20.1177C37.4032 -20.1177 25.5869 -2.78138 25.5869 13.1538H65.5024ZM57.0587 20.1176C53.8553 20.1176 51.4829 18.5881 50.2353 17.1629C49.0213 15.776 48.6151 14.2993 48.6151 13.1538H88.5306C88.5306 -2.78138 76.7146 -20.1177 57.0587 -20.1177V20.1176Z" fill="#535BF2"/>
</g>
</g>
<path d="M123.875 84V39.2H144.227C149.091 39.2 153.379 40.1387 157.091 42.016C160.803 43.8507 163.704 46.432 165.795 49.76C167.885 53.088 168.931 57.0347 168.931 61.6C168.931 66.1227 167.885 70.0693 165.795 73.44C163.704 76.768 160.803 79.3707 157.091 81.248C153.379 83.0827 149.091 84 144.227 84H123.875ZM134.243 75.488H143.715C146.701 75.488 149.283 74.9333 151.458 73.824C153.677 72.672 155.384 71.0507 156.579 68.96C157.816 66.8693 158.435 64.416 158.435 61.6C158.435 58.7413 157.816 56.288 156.579 54.24C155.384 52.1493 153.677 50.5493 151.458 49.44C149.283 48.288 146.701 47.712 143.715 47.712H134.243V75.488ZM198.51 84.768C194.968 84.768 191.683 84.192 188.654 83.04C185.667 81.888 183.064 80.2667 180.845 78.176C178.67 76.0853 176.963 73.632 175.726 70.816C174.531 68 173.934 64.928 173.934 61.6C173.934 58.272 174.531 55.2 175.726 52.384C176.963 49.568 178.691 47.1147 180.91 45.024C183.128 42.9333 185.731 41.312 188.718 40.16C191.704 39.008 194.947 38.432 198.446 38.432C201.987 38.432 205.229 39.008 208.174 40.16C211.16 41.312 213.742 42.9333 215.918 45.024C218.136 47.1147 219.864 49.568 221.102 52.384C222.339 55.1573 222.958 58.2293 222.958 61.6C222.958 64.928 222.339 68.0213 221.102 70.88C219.864 73.696 218.136 76.1493 215.918 78.24C213.742 80.288 211.16 81.888 208.174 83.04C205.229 84.192 202.008 84.768 198.51 84.768ZM198.446 75.936C200.451 75.936 202.286 75.5947 203.95 74.912C205.656 74.2293 207.15 73.248 208.43 71.968C209.71 70.688 210.691 69.1733 211.374 67.424C212.099 65.6747 212.462 63.7333 212.462 61.6C212.462 59.4667 212.099 57.5253 211.374 55.776C210.691 54.0267 209.71 52.512 208.43 51.232C207.192 49.952 205.72 48.9707 204.014 48.288C202.307 47.6053 200.451 47.264 198.446 47.264C196.44 47.264 194.584 47.6053 192.878 48.288C191.214 48.9707 189.742 49.952 188.462 51.232C187.182 52.512 186.179 54.0267 185.454 55.776C184.771 57.5253 184.43 59.4667 184.43 61.6C184.43 63.6907 184.771 65.632 185.454 67.424C186.179 69.1733 187.16 70.688 188.398 71.968C189.678 73.248 191.171 74.2293 192.878 74.912C194.584 75.5947 196.44 75.936 198.446 75.936ZM252.19 84.768C248.734 84.768 245.512 84.2133 242.526 83.104C239.582 81.952 237.022 80.3307 234.845 78.24C232.67 76.1493 230.963 73.696 229.726 70.88C228.531 68.064 227.934 64.9707 227.934 61.6C227.934 58.2293 228.531 55.136 229.726 52.32C230.963 49.504 232.67 47.0507 234.845 44.96C237.064 42.8693 239.646 41.2693 242.59 40.16C245.534 39.008 248.755 38.432 252.254 38.432C256.136 38.432 259.635 39.1147 262.75 40.48C265.907 41.8027 268.552 43.7653 270.686 46.368L264.03 52.512C262.494 50.7627 260.787 49.4613 258.91 48.608C257.032 47.712 254.984 47.264 252.766 47.264C250.675 47.264 248.755 47.6053 247.006 48.288C245.256 48.9707 243.742 49.952 242.462 51.232C241.182 52.512 240.179 54.0267 239.454 55.776C238.771 57.5253 238.43 59.4667 238.43 61.6C238.43 63.7333 238.771 65.6747 239.454 67.424C240.179 69.1733 241.182 70.688 242.462 71.968C243.742 73.248 245.256 74.2293 247.006 74.912C248.755 75.5947 250.675 75.936 252.766 75.936C254.984 75.936 257.032 75.5093 258.91 74.656C260.787 73.76 262.494 72.416 264.03 70.624L270.686 76.768C268.552 79.3707 265.907 81.3547 262.75 82.72C259.635 84.0853 256.115 84.768 252.19 84.768ZM286.967 73.76L286.391 61.792L307.831 39.2H319.351L300.023 60L294.263 66.144L286.967 73.76ZM277.687 84V39.2H287.991V84H277.687ZM308.343 84L292.407 64.48L299.191 57.12L320.439 84H308.343ZM325.062 84V39.2H335.43V75.552H357.894V84H325.062ZM363.687 84V39.2H374.055V84H363.687ZM384.687 84V39.2H393.263L419.695 71.456H415.535V39.2H425.775V84H417.263L390.767 51.744H394.927V84H384.687ZM445.655 73.76L445.079 61.792L466.519 39.2H478.039L458.711 60L452.951 66.144L445.655 73.76ZM436.375 84V39.2H446.679V84H436.375ZM467.031 84L451.095 64.48L457.879 57.12L479.127 84H467.031Z" fill="#535BF2"/>
<defs>
<clipPath id="clip0_39_36">
<rect width="109" height="114" fill="white"/>
</clipPath>
</defs>
</svg>
