<svg width="213" height="221" viewBox="0 0 213 221" fill="none" xmlns="http://www.w3.org/2000/svg">
<path d="M1 131.173C15 130.006 43.4 122.873 45 103.673C47 79.6728 65 155.673 110.5 121.173C156 86.6728 146.5 141.673 166.5 103.673C186.5 65.6728 161 154.173 210.5 121.173" stroke="black" stroke-width="9"/>
<path d="M28.0725 149.5L49.5725 160.5C37.9725 159.3 37.7391 163.333 39.0725 165.5C53.4725 188.7 84.7391 195.5 98.5725 196C98.5725 188.8 104.239 186 107.072 185.5V26C107.072 23.6 110.406 22.3333 112.072 22V220.5C106.472 220.5 106.406 214.833 107.072 212C104.672 212 100.406 207.333 98.5725 205C39.3725 201 26.9058 166.333 28.0725 149.5Z" fill="#535BF2"/>
<path d="M195.572 149.5L174.072 160.5C185.672 159.3 185.906 163.333 184.572 165.5C170.172 188.7 138.906 195.5 125.072 196C125.072 188.8 119.406 186 116.572 185.5V26C116.572 23.6 113.239 22.3333 111.572 22V220.5C117.172 220.5 117.239 214.833 116.572 212C118.972 212 123.239 207.333 125.072 205C184.272 201 196.739 166.333 195.572 149.5Z" fill="#535BF2"/>
<path opacity="0.77" d="M114.01 80.9852C124.082 80.8358 132.114 79.568 138.41 77.7723C140.76 77.1018 153.731 85.5144 154.508 87.8318C154.556 87.9765 154.606 88.1198 154.656 88.2617C155.31 90.1122 154.935 90.5541 153.089 89.8868C144.647 86.8348 125.993 87.0649 114.145 87.847C112.982 87.9237 112 87.0053 112 85.8402V83C112 81.8954 112.906 81.0016 114.01 80.9852Z" fill="#535BF2"/>
<path d="M110.49 80.9852C100.418 80.8358 92.3856 79.568 86.0903 77.7723C83.7397 77.1018 70.7694 85.5144 69.992 87.8318C69.9435 87.9765 69.8941 88.1198 69.844 88.2617C69.1904 90.1122 69.5653 90.5541 71.411 89.8868C79.8531 86.8348 98.5069 87.0649 110.355 87.847C111.518 87.9237 112.5 87.0053 112.5 85.8402V83C112.5 81.8954 111.594 81.0016 110.49 80.9852Z" fill="#535BF2"/>
<mask id="path-6-inside-1_10_2" fill="white">
<ellipse cx="111.5" cy="25.5" rx="22.5" ry="25.5"/>
</mask>
<path d="M95 25.5C95 23.2793 95.7938 20.4167 98.1662 17.728C100.604 14.9651 105.24 12 111.5 12V90C149.91 90 173 56.3919 173 25.5H95ZM111.5 12C117.76 12 122.396 14.9651 124.834 17.728C127.206 20.4167 128 23.2793 128 25.5H50C50 56.3919 73.0905 90 111.5 90V12ZM128 25.5C128 27.7207 127.206 30.5833 124.834 33.272C122.396 36.0349 117.76 39 111.5 39V-39C73.0905 -39 50 -5.39191 50 25.5H128ZM111.5 39C105.24 39 100.604 36.0349 98.1662 33.272C95.7938 30.5833 95 27.7207 95 25.5H173C173 -5.39191 149.91 -39 111.5 -39V39Z" fill="#535BF2" mask="url(#path-6-inside-1_10_2)"/>
</svg>
